{"title":"Paper.Man.2009.DVDRiP.XviD.OPTIONAL-MULTISUB-Zen_Bud","uid":5931006,"size":758224819,"categoryP":"video","categoryS":"movies","magnet":"?xt=urn:btih:9bdf0da9ef388ac1ebfb2cbfa24ed6ea291145d2&amp;dn=Paper.Man.2009.DVDRiP.XviD.OPTIONAL-MULTISUB-Zen_Bud&amp;tr=udp%3A%2F%2Ftracker.openbittorrent.com%3A80&amp;tr=udp%3A%2F%2Fopen.demonii.com%3A1337&amp;tr=udp%3A%2F%2Ftracker.coppersurfer.tk%3A6969&amp;tr=udp%3A%2F%2Fexodus.desync.com%3A6969","seeders":0,"leechers":0,"uploader":"Zen_Bud","files":-1,"time":1288772579,"description":"********* Paper.Man.2009.DVDRiP.XviD.OPTIONAL-MULTISUB-Zen_Bud *********\n\nFormat                           : AVI\nFile size                        : 707 MiB\nDuration                         : 1h 46mn\nOverall bit rate                 : 931 Kbps\n\nVideo\n\nFormat                           : MPEG-4 Visual\nCodec ID/Hint                    : XviD\nDuration                         : 1h 46mn\nBit rate                         : 790 Kbps\nWidth                            : 720 pixels\nHeight                           : 556 pixels\nDisplay aspect ratio             : 16:9\nStream size                      : 600 MiB (85%)\nWriting library                  : XviD 1.1.2 (UTC 2006-11-01)\n\nAudio\n\nFormat                           : MPEG Audio\nCodec ID/Hint                    : MP3\nDuration                         : 1h 46mn\nBit rate                         : 128 Kbps\nChannel(s)                       : 2 channels\nSampling rate                    : 48.0 KHz\nStream size                      : 97.2 MiB (14%)\nWriting library                  : LAME3.98\nLanguage                         : English\n\nText #1\nLanguage                         : Danish\n\nText #2\nLanguage                         : Swedish\n\nText #3\nLanguage                         : Norwegian\n\nText #4\nLanguage                         : Finnish\n\n\n\nA washed-up writer forms an unlikely friendship with a teenager from Long Island\n","torrent":{"xt":"urn:btih:9bdf0da9ef388ac1ebfb2cbfa24ed6ea291145d2","amp;dn":"Paper.Man.2009.DVDRiP.XviD.OPTIONAL-MULTISUB-Zen_Bud","amp;tr":["udp%3A%2F%2Ftracker.openbittorrent.com%3A80","udp%3A%2F%2Fopen.demonii.com%3A1337","udp%3A%2F%2Ftracker.coppersurfer.tk%3A6969","udp%3A%2F%2Fexodus.desync.com%3A6969"],"infoHash":"9bdf0da9ef388ac1ebfb2cbfa24ed6ea291145d2","infoHashBuffer":{"type":"Buffer","data":[155,223,13,169,239,56,138,193,235,251,44,191,162,78,214,234,41,17,69,210]},"announce":[],"urlList":[]}}